<svg width="458" height="352" fill="none" xmlns="http://www.w3.org/2000/svg"><path fill-rule="evenodd" clip-rule="evenodd" d="M322.7 37.4v7.7h-20.8V.4h20.8V8h-13.2v10.8H320v7.7h-10.5v10.9h13.2ZM289.9.4h7.6v44.7h-7.6v-22l-3 11.4h-7.4l-3-11.4v22h-7.6V.4h7.6l6.8 21.6L289.9.4ZM258 8h-5.5v29.3h5.5V8Zm3-7.6c2.5 0 4.7 2.1 4.7 4.7v35.3c0 2.6-2.2 4.7-4.7 4.7h-11.4c-2.6 0-4.7-2.2-4.7-4.7V5.1c0-2.6 2.1-4.7 4.7-4.7H261Zm-28 28.2 7.7-1.8v13.6c0 2.6-2.2 4.7-4.7 4.7h-11.4c-2.6 0-4.7-2.2-4.7-4.7V5.1c0-2.6 2.1-4.7 4.7-4.7H236c2.5 0 4.7 2.1 4.7 4.7v9.1L233 16V8h-5.5v29.3h5.5v-8.7Zm-16.8 8.8v7.7H198V.4h7.6v37h10.6Zm-21.4 0v7.7H174V.4h20.8V8h-13.2v10.8h10.5v7.7h-10.5v10.9h13.2ZM162.6.4h7.7L169 45.1h-14.5l-2-18.5-2 18.5H136L135 .4h7.6l.6 37h.8l4.8-37h7.6l4.9 37h.8l.5-37Zm-10.3 55.7-2.8 4.9h-2.7l-.9 1.4h2.8l-6.1 10.4c-1.3 2.2-.4 4.2 2.1 4.2 1.8 0 3.7-1.3 5.6-3.1 0 3.8 5.3 4.5 8.6.5h.7c1.8 0 4.6-1.1 6.2-2.9-.2-.4-.7-.9-1.1-1l-.2.2c-1.4 1.5-3 2.2-4.6 2.2l2.8-4.8c1.8-3.1.1-6.1-2.7-6.1-2.3 0-4.1.9-5.9 3.9l-1.5 2.6-1.2 2.1-.2.2c-2.2 2.5-4.3 4.5-5.6 4.5-.7 0-1-.5-.3-1.6l6.5-11.2h2.5l.7-1.5h-2.5l2.8-4.9h-3Zm7.5 7.8c1 .1 1.4 1.3.4 3l-2.2 3.7h-.1c-1 0-1.8.8-1.8 1.8 0 .4.1.7.3 1v.1c-1.4 2.4-4.9 2-3.1-1.1l2.3-3.9 1.5-2.4c.9-1.6 2-2.2 2.7-2.2Zm22-7.8L179 61h-2.7l-.9 1.4h2.8L172 72.8c-1.3 2.2-.4 4.2 2.1 4.2 1.2 0 2.5-.6 3.9-1.6l-.8 1.3h3l4.6-7.9c4.6-5.8 6.7-5 5.4-2.8l-3.9 6.7c-1.3 2.2-.4 4.2 2.1 4.2 1.8 0 3.8-1.4 5.7-3.2.1 1.9 1.7 3.2 4.1 3.2 3.4 0 6.8-2.6 9.3-5.5-.2-.4-.7-.9-1.1-1l-.2.2c-2.2 2.5-5 4.5-7.1 4.5-1.9 0-3-1.1-1.6-3.6l.3-.5c1.9.8 5.6.4 7.9-3.4l.4-.7c1.6-2.8.1-4.8-2.4-4.8-2.4 0-4.4 1.3-5.7 3.4l-2.9 5-.2.2c-2.2 2.5-4.3 4.5-5.6 4.5-.7 0-1-.5-.4-1.6l4.4-7.5c1.3-2.3.1-3.9-1.6-3.9-1.3 0-2.7.7-4.2 2.3l4.8-8.3h-3l-8.4 14.4-.2.2c-2.2 2.5-4.3 4.5-5.6 4.5-.7 0-1-.5-.3-1.6l6.5-11.2h2.5l.9-1.4h-2.5l2.8-4.9-3.2-.1Zm21.3 8.2c1-.1 1.5.9.5 2.6l-.4.7c-1.4 2.4-3.4 2.4-4.5 2l1.9-3.4c.7-1.2 1.7-1.8 2.5-1.9Zm44.3-5.4c-1.7 1.5-1.9 3.2-.8 4.6l.3.3c-1.3 1.9-3.1 4.4-5.1 6.7l-.2.2c-1.4 1.5-3 2.2-4.6 2.2l2.8-4.8c1.8-3.1.1-6.1-2.7-6.1-2.3 0-4.1.9-5.9 3.9l-1.5 2.6-1.2 2.1-.2.2c-2.5 2.8-4.6 4.7-7 5.7l6.8-11.4h-1.8c0-1.2-1.3-2.9-3.2-2.9-1.6 0-3.9 1.3-5.2 3.4l-4.2 7.2c-1.3 2.2-.4 4.2 2.1 4.2.8 0 1.9-.4 2.9-1l-.8 1.4c-4.1 1.2-6.6 2.9-6.6 5.1 0 2.9 4.4 3.5 6.6-.2l2.3-3.9c2.4-.7 4.8-2.1 7.2-4.5 0 3.8 5.3 4.6 8.6.5h.7c1.8 0 4.6-1.1 6.2-2.9 1.4-1.7 2.6-3.2 5-6.4l.4.5c.4.5.5 1.1.2 1.7l-3.2 5.5c-1.3 2.2-.4 4.2 2.1 4.2 1.5 0 3.2-1 4.8-2.4-.1 1.4.9 2.4 2.6 2.4.8 0 1.9-.4 2.9-1l-.8 1.4c-4.1 1.2-6.6 2.9-6.6 5.1 0 2.9 4.4 3.5 6.6-.2l2.3-3.9c2.5-.8 4.9-2.2 7.4-4.6.1 1.9 1.7 3.2 4.1 3.2 2.5 0 4.9-1.4 7-3.2-.1 3.9 5.3 4.7 8.6.6h.7c.9 0 2.2-.3 3.4-.9-.8 2.1-.1 3.5 1.7 3.5 1.7 0 3.5-1.5 5-2.9-.3 1.6.7 2.9 2.6 2.9 2.5 0 5.4-2.6 7.9-5.5 1.28-1.51 2.45-3.02 3.42-4.28l.88-1.12c-.4 1.05-.6 2.39-.8 3.7-.38 2.55-.75 5-2.6 5-1 0-1.4-1.1-1.4-1.1l-1.9 1s.6 2.4 3.3 2.4c.3 0 .6 0 .8-.1h.1c3.1-.4 6.1-2.8 8.4-5.4-.2-.5-.7-.9-1.1-1l-.2.2c-1.1 1.2-2.3 2.3-3.6 3.2.4-1.14.62-2.55.84-4.07.33-2.22.7-4.68 1.76-6.93l-2.3-1.2c-1.2 1.7-4 5.6-6.7 8.7l-.2.2c-2.2 2.5-4.3 4.5-5.6 4.5-.7 0-1-.5-.3-1.6l6.4-11.2h-3l-5.4 9.3c-2.3 2.1-4.1 3.2-4.6 3-.7-.26-.18-1.14.24-1.82l.16-.28 5.9-10.2h-3l-4.7 8.1-.2.2c-1.4 1.5-3 2.2-4.6 2.2l2.8-4.8c1.8-3.1.1-6.1-2.7-6.1-2.3 0-4.1.9-5.9 3.9l-1.5 2.6-1.2 2.1-.2.2c-2.2 2.5-5 4.5-7.1 4.5-1.9 0-3-1.1-1.6-3.6l.3-.5c1.9.8 5.6.4 7.9-3.4l.4-.7c1.6-2.8.1-4.8-2.4-4.8-2.4 0-4.4 1.3-5.7 3.4l-2.9 5-.2.2c-2.5 2.8-4.6 4.7-7 5.7l6.8-11.4h-1.8c0-1.2-1.3-2.9-3.2-2.9-1.6 0-3.9 1.3-5.2 3.4l-2.9 4.9-.2.2c-2.2 2.5-4.3 4.5-5.6 4.5-.7 0-1-.5-.3-1.6l3-5.2c1-1.8.6-2.9-.4-4l-1.7-2c-.4-.5-.4-1.1.2-1.7l-1.9-1.9Zm-10.3 5c1 .1 1.5 1.3.4 3l-2.2 3.7h-.1c-1 0-1.8.8-1.8 1.8 0 .4.1.7.3 1v.1c-1.4 2.4-4.9 2-3.1-1.1l2.3-3.9 1.5-2.4c.9-1.6 1.9-2.2 2.7-2.2Zm50.2 0c1 .1 1.5 1.3.4 3l-2.2 3.7h-.1c-1 0-1.8.8-1.8 1.8 0 .4.1.7.3 1v.1c-1.4 2.4-4.9 2-3.1-1.1l2.3-3.9 1.5-2.4c.8-1.6 1.9-2.2 2.7-2.2Zm-11.7.4c1-.1 1.5.9.5 2.6l-.4.7c-1.5 2.4-3.4 2.4-4.5 2l1.9-3.4c.7-1.2 1.7-1.8 2.5-1.9Zm-52.4.2c1 0 1.7.9.8 2.4l-2.3 4c-1.8 2.9-3.7 4.3-4.9 4.3-.7 0-1-.5-.3-1.6l4.2-7.3c.7-1.2 1.7-1.8 2.5-1.8Zm38.9 0c1 0 1.7.9.8 2.4l-2.3 4c-1.8 2.9-3.7 4.3-4.9 4.3-.7 0-1-.5-.3-1.6l4.2-7.3c.7-1.2 1.7-1.8 2.5-1.8Zm-45.3 14.9-1.4 2.4c-.6 1.1-1.7.9-1.7.1 0-.7.8-1.6 3.1-2.5Zm38.9 0-1.4 2.4c-.6 1.1-1.7.9-1.7.1.1-.7.8-1.6 3.1-2.5ZM101 67.8h28.9v1.9H101v-1.9Zm227.1 0H357v1.9h-28.9v-1.9Zm78 72.1-25.4 74h20l3.8-13.4h28.6l3.7 13.4H457l-25.7-74h-25.2Zm2.8 46.4 7.5-24.5c.3-1.1.6-2.2 1.1-3.2.3-1.1.6-2.3.8-3.4.1-.1.1-.2.1-.3 0-.2 0-.3.1-.5 0-.5.1-.9.2-1.3.1-.5.2-.9.3-1.3 0 .33.07.66.15 1.05l.05.25c0 .4.1.8.3 1.3.17 1.1.4 2.11.66 3.19l.14.61 1.2 3.6 7.5 24.5h-20.1Zm-110.2-46.4v74h19.6v-36.5a93.41 93.41 0 0 0-1.2-14.7c.32.57.55 1.18.78 1.78.14.34.27.69.42 1.02l.38.74c.37.72.72 1.41 1.02 2.16.6 1.4 1.3 2.8 2 4.1.7 1.3 1.4 2.4 2.2 3.3L352 214h19.4v-74H352v36.3c0 1.7 0 3.3.1 5 0 1.6.1 3.2.3 4.8 0 .8.1 1.6.2 2.4l.3 2.4c-.3-.53-.56-1.1-.83-1.69l-.57-1.21-1.4-3c-.6-1.2-1.3-2.4-2-3.6-.6-1.2-1.3-2.4-2-3.5l-27.9-38h-19.5Zm-73.1 4c-6.4 3.5-11.3 8.5-14.9 15.1-1 1.9-1.9 3.8-2.3 6-.7 1.9-1.2 4-1.6 6-.29.96-.39 2-.49 2.96l-.01.14c-.1 1-.1 2-.1 3 0 6.8 1.9 13.4 5.6 19.7a37.5 37.5 0 0 0 15.3 14.5c2.3 1.2 4.8 2.2 7.4 2.9 2.6.7 5.2 1.2 7.9 1.4h1.5c.5.1 1.1.1 1.6.1 7.6 0 14.8-2.1 21.7-6.2 6.9-4.1 11.9-10 15.2-17.5.6-1.5 1.1-3 1.5-4.6a38.56 38.56 0 0 0 1.1-7.2c.1-.8.1-1.6.1-2.4 0-6.5-1.5-12.6-4.5-18.5a36.1 36.1 0 0 0-20.9-18.2c-2.8-1-5.6-1.7-8.5-2.1-.9 0-1.9-.1-2.9-.2-.9-.1-1.9-.1-2.8-.1-6.9 0-13.5 1.7-19.9 5.2Zm38.5 39.3-.6 2.4c-1.4 4.1-3.8 7.4-7.1 10-3.2 2.4-6.9 3.6-11 3.6H244l-1.4-.2c-.5 0-1-.1-1.5-.2l-1.4-.5c-4-1.2-7.2-3.6-9.5-7.2-2.2-3.7-3.5-7.6-3.7-11.7-.1-.3-.1-.6-.1-.8v-2.4l.2-1.6c.09-.35.16-.69.22-1.01.09-.41.17-.8.28-1.19l.3-1.1.3-1.1v-.5l.2-.5c1.3-4.1 3.7-7.4 7-9.9s7-3.7 10.9-3.7c.8 0 1.5 0 2.3.2.8 0 1.5.1 2.3.3.63.16 1.2.37 1.79.6l.51.2c.8.3 1.5.6 2.3 1 2.8 1.7 5.1 4.1 6.7 7.2 1.6 3.1 2.6 6.3 3 9.6v1.4c.1.5.1.9.1 1.4 0 .5 0 1-.1 1.5 0 .5 0 1.1-.1 1.6a19.22 19.22 0 0 1-.5 2.6Zm-94.5 28.9c4.2-.9 8.2-2.6 11.8-5.1 4.5-3.3 8.1-7.6 10.5-12.7 2.4-5.1 3.7-10.4 3.9-15.9v-2.9c0-.5 0-.9-.1-1.4-.3-5.2-1.7-10.3-4.1-15.3-2.4-5-5.8-9-10.1-12-3.4-2.4-7.2-4.2-11.3-5.1-4-.9-8.1-1.5-12.3-1.7-1.2-.1-2.4-.1-3.6-.1h-25.1v74H153c1.2 0 2.5 0 3.7-.1 4.3-.2 8.7-.8 12.9-1.7Zm-19.9-14.7c-.2-.1-.5-.1-.7-.1v-40.6h7.5c2 .1 4 .3 6 .8s3.9 1.4 5.5 2.7c2.2 1.6 3.9 3.8 5.1 6.6 1.2 2.7 1.9 5.6 2.1 8.5.1.3.1.6.1.9v.9c0 3.3-.7 6.5-1.9 9.6-1.2 3-3 5.4-5.5 7.2-1.5 1-3.3 1.9-5.2 2.4-1.9.5-3.9.8-5.9 1-.62 0-1.32.08-2.1.17l-.3.03h-3.1c-.2-.1-.5-.1-.8-.1h-.8Zm-80.6-57.5v74h45.3v-16.6H88.9v-12.5h24V169h-24v-13h25.6v-16.1H69.1ZM9.8 190.3s0-.1-.1-.2L.3 204.9c3.5 3.2 7.5 5.8 12 7.7 4.5 1.8 9.1 2.8 13.7 3h1.4c1.2 0 2.3 0 3.4-.2 1.2-.1 2.4-.3 3.5-.5 1.4-.3 2.8-.6 4.2-1 1.4-.4 2.8-1 4.1-1.6 3.6-2 6.4-4.8 8.5-8.4 2.1-3.6 3.4-7.5 3.9-11.5v-1.3c.1-.5.1-.9.1-1.4v-.6c-.1-4-1.2-7.8-3.4-11.4-2.2-3.7-5.5-6.3-9.8-7.8-.9-.3-2.1-.6-3.5-.9-1.4-.4-2.8-.8-4.3-1.2-1.2-.33-2.34-.7-3.45-1.07L29 166.2c-1.6-.6-2.8-1.3-3.7-2a8 8 0 0 1-1.3-1.3c-.4-.5-.6-1-.8-1.5a4.9 4.9 0 0 1-.15-.35l-.15-.35v-.7c0-1.6.8-3 2.3-4.3 1.6-1.4 3.2-2.2 5-2.4h.9c2.7 0 5.2.5 7.5 1.7s4.5 2.6 6.6 4.1l6.4-14.3c-2.4-1.4-4.9-2.7-7.7-3.8-2.6-1-5.4-1.8-8.2-2.3l-3.3-.3c-1-.1-2-.2-3-.2-4.2 0-8.4.9-12.3 2.7-3.8 1.8-7 4.7-9.5 8.8-.9 1.3-1.6 2.7-2.1 4.2-.6 1.5-1 3-1.2 4.6-.1.7-.2 1.3-.3 1.9v3.4a12.41 12.41 0 0 0 .65 3.9 16.61 16.61 0 0 0 7.25 10.1c3.3 2 6.9 3.5 10.7 4.4 0 0 .1 0 .2.1h.2l1.1.3 1.1.3c.8.2 1.6.4 2.4.7 2.1.8 4.1 2 5.8 3.4 1.9 1.4 2.8 3.1 2.8 5.2 0 .4 0 .8-.1 1.3 0 .5-.1 1-.3 1.5l-.2.5-.2.5c-.6 1.1-1.5 1.9-2.7 2.6-1.1.7-2.3 1.2-3.5 1.4-.24 0-.47.06-.76.14l-.24.06h-1.3c0-.1-.1-.1-.2-.1h-.3c0-.1-.1-.1-.2-.1-3.4-.1-6.5-1.2-9.1-3.1-2.6-2-5-4.2-7.1-6.5 0-.1-.1-.1-.2-.1Zm341.7 146c-.1.3-.2.6-.2.9 0 .8.2 1.3.8 1.6.5.4 1.1.6 1.7.6 0 .4-.1.7-.3 1-.2.3-.4.6-.7.8-.3.2-.6.4-.9.5a3.67 3.67 0 0 1-.8.4l1.4 2 .2-.08c.08-.03.14-.06.2-.12l.23-.14c.13-.1.28-.2.47-.26.3-.1.6-.3.9-.5.3-.2.5-.4.8-.7.6-.5 1-1.2 1.3-1.9.3-.8.5-1.5.5-2.4 0-.5-.1-.9-.2-1.3-.2-.4-.4-.7-.6-1-.3-.3-.7-.5-1.1-.7-.4-.2-.8-.3-1.3-.3-.4 0-.8.1-1.1.2-.3.2-.6.4-.8.6-.2.2-.4.5-.5.8Zm7.8 0c-.1.3-.2.6-.2.9 0 .8.2 1.3.9 1.6.5.4 1.1.6 1.7.6 0 .4-.1.7-.3 1-.2.3-.4.6-.7.8-.3.2-.6.4-.9.5a3.67 3.67 0 0 1-.8.4l1.3 2 .2-.08c.08-.03.14-.06.2-.12l.23-.14c.13-.1.28-.2.47-.26.3-.1.6-.3.9-.5.3-.2.5-.4.8-.7.6-.5 1-1.2 1.3-1.9a5.19 5.19 0 0 0 .3-3.7c-.2-.4-.4-.7-.6-1-.3-.3-.7-.5-1.1-.7-.4-.2-.8-.3-1.3-.3-.4 0-.8.1-1.1.2-.3.2-.6.4-.8.6-.2.2-.4.5-.5.8Zm-265-56.9c.1-.3.2-.6.2-.9 0-.7-.2-1.2-.9-1.6-.5-.4-1-.6-1.7-.6 0-.4.1-.7.3-1 .2-.3.4-.6.7-.8.3-.2.6-.4.9-.5.2-.2.5-.3.8-.4l-1.3-2c-.06.06-.12.08-.2.12a1.97 1.97 0 0 0-.43.22c-.13.1-.28.2-.47.26-.3.1-.6.3-.9.5-.3.2-.5.4-.8.7-.6.5-1 1.2-1.3 1.9-.3.8-.5 1.5-.5 2.4 0 .5.1.9.2 1.3.1.3.3.7.6 1 .3.3.7.5 1.1.7a2.73 2.73 0 0 0 3.2-.5c.2-.2.4-.5.5-.8Zm-8.3.8c.5-.5.7-1.1.7-1.7 0-.7-.3-1.2-.9-1.6-.5-.4-1-.6-1.7-.6 0-.4.1-.7.3-1 .2-.3.4-.6.7-.8.3-.2.6-.4.9-.5a3.67 3.67 0 0 1 .8-.4l-1.3-2c-.06.06-.12.08-.2.12a1.97 1.97 0 0 0-.43.22c-.13.1-.28.2-.47.26-.3.1-.6.3-.9.5-.3.2-.6.5-.8.7-.6.5-1 1.2-1.3 1.9-.3.8-.5 1.5-.5 2.4 0 .5.1.9.2 1.3.1.3.3.7.6 1 .3.3.7.5 1.1.7a3.08 3.08 0 0 0 2.4.1c.3-.2.6-.4.8-.6Zm249.8 55.2H332l11.8-20.6h3.8l-11.8 20.6Zm-6.1 3.7c0-1.2 1-2.2 2.2-2.2 1.2 0 2.2.9 2.2 2.2 0 1.3-1 2.2-2.2 2.2-1.3 0-2.2-1-2.2-2.2Zm-23.1-9.6-1.1 1.9c.8 2.4 4.2 1 5.3-.9l1.8-3.1c1.3-2.3-1.6-4-6 2.1Zm22.6 3.5c.5.1 1.2.7 1.4 1.3-2.8 3.3-6.6 6.4-10.6 6.9h-.1c-.4.1-.7.1-1.1.1-3.4 0-4.1-3-4.1-3l2.4-1.2s.5 1.4 1.8 1.4c2.39 0 2.84-3.12 3.31-6.36.24-1.64.48-3.32.99-4.64-.4.5-.83 1.08-1.3 1.7a136.3 136.3 0 0 1-4.1 5.2c-3.1 3.7-6.7 7-9.8 7-3.1 0-3.7-1.7-3.7-4.9v-3L300 341h-3.8l2.1-3.7c-2.6 2.3-5.6 4-8.7 4-3.1 0-5.1-1.9-5.1-4.4-2.4 2.5-5.1 4.4-7.4 4.4-2.4 0-3.6-1.6-3.2-3.6-1.8 1.7-4.1 3.6-6.2 3.6-1.6 0-2.5-1-2.5-2.5-1.8 1.3-4.5 2.1-6.4 2.4h-.1c-.4.1-.7.1-1.1.1-3.4 0-4.1-3-4.1-3l2.4-1.2s.5 1.4 1.8 1.4c2.39 0 2.84-3.12 3.31-6.36.24-1.64.48-3.32.99-4.64-1.4 1.8-8.6 11-10.7 13.5l-.3-.23a4.36 4.36 0 0 1-1.1-1.07c2.88-3.38 9.54-12.2 12.5-16.11l1.2-1.59 2.8 1.5c-1.47 3-1.92 6.22-2.33 9.09-.26 1.83-.5 3.51-.97 4.91.28-.17.65-.37 1.05-.58.76-.4 1.63-.86 2.15-1.32l7.3-12.7h3.8l-7.4 12.9-.03.05c-.5.8-1.35 2.16-.47 2.55.7.4 2.9-1.1 5.8-3.7L282 323h3.8l-8.1 14.1c-.9 1.5-.4 2.1.4 2.1 1.6 0 4.3-2.5 7-5.7l.3-.3s.1.1.2.1l3.7-6.4c1.6-2.8 4-4.4 7.1-4.4 3.1 0 5 2.6 3 6.1l-.5.9h-3.1l.5-.9c2.2-3.9-1.6-4.5-3.8-.8l-3.9 6.8c-1.7 3-.3 4.5 2 4.5 2.7 0 6.2-2.5 8.9-5.7l.3-.3.22.14c.19.12.33.21.48.36l10.8-18.7h3.8l-5.4 9.3c3.9-3.5 9.6-1.5 6.1 4.5l-1 1.7c-1.7 3.1-4.5 4.8-7.2 4.5v1.6c0 1.7.8 2.5 1.6 2.5 1.6 0 4.3-2.5 7-5.7l.3-.3c2.42-2.85 4.84-6.2 6.6-8.65l1.8-2.45 2.8 1.5c-1.47 3-1.93 6.22-2.33 9.09-.26 1.82-.5 3.51-.97 4.91 1.6-1.2 3.2-2.5 4.5-4.1l.3-.3Zm-113.4.2h.2l2.8-4.7c2.3-3.9-1.3-5.7-4-1.2l-1.8 3.1-2.9 5c-2.2 4 2.1 4.5 3.9 1.5v-.1c-.3-.4-.4-.8-.4-1.3 0-1.3 1-2.3 2.2-2.3Zm-27.3 14.4c0 1 1.3 1.2 2.1-.2l1.7-3c-2.9 1.1-3.8 2.2-3.8 3.2Zm-32.8-8.7c1.6 0 3.8-1.7 6.1-5.3l3-5.2c1.9-3.4-2.2-4.3-4.2-.8l-5.3 9.2c-.9 1.5-.4 2.1.4 2.1Zm-2.5-22.8c-1 0-2.3.9-3.4 2.8l-5.5 9.4h.8c5.8.9 10.2-6.4 10.2-9.9 0-1.4-.7-2.3-2.1-2.3Zm89.1 17.2.3-.3c.3.12.65.4.9.59.15.12.26.21.3.21-3.1 3.7-6.7 7-9.8 7-3.1 0-4.2-2.6-2.6-5.4l4.9-8.5c1.7-2.8-.9-3.7-6.7 3.5l-5.8 10.1H220l2.5-4.4c-1.7 1-3.5 1.5-4.9 1.5h-.8c-4.2 5.4-11.2 4.2-10.7-1.1-3.2 3.2-6.3 5.2-9.5 6.2l-2.9 5c-2.7 4.7-8.3 3.9-8.3.3 0-2.9 3.2-5 8.3-6.5l2.1-3.6c-1.7 1.5-3.8 3-5.6 3-1.9 0-2.9-1.3-2.4-3.4-2.1 2-4.4 3.4-6.4 3.4-3.1 0-4.2-2.6-2.6-5.4l4.9-8.5c1.7-2.8-.9-3.7-6.7 3.5l-5.8 10.1h-3.8l1.4-2.4c-1.9 1.7-3.9 2.8-5.7 2.8-2 0-3.1-1-3.3-2.5-1.8 1.5-3.7 2.5-5.2 2.5-2.6 0-3.8-2-3-4.4l-.14.13c-2.53 2.44-4.43 4.27-8.56 4.27-5.3 0-6.9-5.1-4.2-9.7l1.1-2a8.47 8.47 0 0 1-4.8-7.5c0-2.5 1.2-5.1 3.9-7l1.2 2.2a6.25 6.25 0 0 0-2.4 4.8c0 2.1 1.2 4.2 3.4 5.4l5.9-10.1c1.7-2.9 4.1-4.4 6.2-4.4 2.8 0 5 2.2 5 5.6 0 1.5-.4 3.2-1.5 5.1-3 5.2-7.6 7.3-11.6 7.3-.7 0-1.4-.1-2.1-.2l-1.1 1.9c-2.2 3.8-.7 6.4 1.9 6.4 3.8 0 5.89-2.49 8.58-5.68l.02-.02.3-.3c.2.1.5.3.8.5l3.9-6.7c1.6-2.8 4.5-4.4 6.5-4.4 2.5 0 4.1 2.2 4 3.8h2.1l-6.1 10.7c-.9 1.5-.4 2.1.4 2.1 1.6 0 4.3-2.5 7-5.7l.3-.3.2.08c.08.04.14.06.2.12l6-10.4h3.8l-1.4 2.5c1.9-1.9 3.6-2.8 5.2-2.8 2.1 0 3.6 2 2 4.9l-5.4 9.6c-.9 1.5-.4 2.1.4 2.1 1.6 0 4.3-2.5 7-5.7l.3-.3c.05.05.1.08.15.1.05.02.1.05.15.1l6-10.4h3.8l-7.4 12.9-.03.05c-.5.8-1.35 2.16-.47 2.55.7.3 3-1.2 5.9-3.9l6.7-11.6h3.8l-10.4 17.7c3-1.3 5.7-3.6 8.8-7.2l.3-.3c.05.05.1.08.15.1.05.02.1.05.15.1l1.6-2.8 1.9-3.2c2.1-3.7 4.4-4.9 7.3-4.9 3.6 0 5.7 3.7 3.4 7.7l-3.6 6.1c1.9 0 4-.9 5.7-2.8l.3-.3.25.15.25.15 6.1-10.5h3.8l-1.4 2.5c1.9-1.9 3.6-2.8 5.2-2.8 2.1 0 3.6 2 2 4.9l-5.4 9.6c-.9 1.5-.4 2.1.4 2.1 1.6 0 4.3-2.5 7-5.7ZM355 302.9c1.6 0 3.9-1.8 6.2-5.5l2.9-5c1.9-3.4-2.2-4.3-4.2-.8l-5.3 9.2c-.9 1.5-.4 2.1.4 2.1Zm-36.1 0c1.6 0 3.8-1.7 6.1-5.3l3-5.2c1.9-3.4-2.2-4.3-4.2-.8l-5.3 9.2c-.9 1.5-.4 2.1.4 2.1Zm-35.9 8.7c0 1 1.3 1.2 2.1-.2l1.7-3c-2.9 1.1-3.8 2.2-3.8 3.2Zm13.5-31.5c-1 0-2.3.9-3.4 2.8l-5.5 9.4h.8c9.6 2.2 14.1-12.2 8.1-12.2Zm74 17.2.3-.3c.3.12.63.38.95.63.23.18.45.35.65.47-3.1 3.7-6.7 7-9.8 7-2 0-3.1-1-3.3-2.5-1.8 1.5-3.7 2.5-5.2 2.5-2.3 0-3.5-1.4-3.3-3.3-2.2 1.9-4 3.3-6 3.3-3.1 0-4.2-2.6-2.6-5.4l4.9-8.5c1.7-2.8-.9-3.7-6.7 3.5l-5.8 10.1h-3.8l1.4-2.4c-1.9 1.7-3.9 2.8-5.7 2.8-2 0-3.1-1-3.3-2.5-1.8 1.5-3.7 2.5-5.2 2.5-2.2 0-3.3-1.3-3.3-3-2.1 1.8-4.5 3-6.4 3-3.1 0-4.2-2.6-2.6-5.4l4-6.9c.5-.7.3-1.5-.2-2.1l-.5-.6c-.58.75-1.1 1.43-1.56 2.06-1.9 2.5-3.08 4.04-4.44 5.64l.08.2c.04.08.06.14.12.2-4.1 4.8-8 7.5-11.9 8.7l-2.9 5c-2.7 4.7-8.3 3.9-8.3.3 0-2.9 3.2-4.9 8.3-6.5l1-1.7a7.9 7.9 0 0 1-4.1 1.2c-5.4 0-5.9-5.1-3.2-9.7l1.1-2a8.47 8.47 0 0 1-4.8-7.5c0-2.5 1.2-5.1 3.9-7l1.2 2.2a6.25 6.25 0 0 0-2.4 4.8c0 2.1 1.2 4.2 3.4 5.4l5.9-10.1c1.7-2.9 4.1-4.4 6.2-4.4 11.8 0 5.3 18-8.1 18-.7 0-1.4-.1-2.1-.2l-1.1 1.9c-2.2 3.8-1.8 6.4.8 6.4 2.9 0 5.2-2.5 7.2-6l.4-.7h3.8l-4.8 8.2c2.9-1.3 5.6-3.6 8.7-7.2l-.3-.3c2.22-2.58 4.2-5.39 5.81-7.67l.59-.83-.3-.4c-1.3-1.7-1.1-3.9 1-5.8l2 2.1c-.7.7-.7 1.5-.2 2.2l2.1 2.5c1.2 1.5 1.8 2.8.5 5.1l-3.8 6.6c-.9 1.5-.4 2.1.4 2.1 1.6 0 4.7-2.5 7.4-5.7l.2-.2 3.7-6.3c1.6-2.8 4.5-4.4 6.5-4.4 2.5 0 4.1 2.2 4 3.8h2.1l-6.1 10.7c-.9 1.5-.4 2.1.4 2.1 1.6 0 4.3-2.5 7-5.7l.3-.3.2.08c.08.04.14.06.2.12l6-10.4h3.8l-1.4 2.5c1.9-1.9 3.6-2.8 5.2-2.8 2.1 0 3.6 2 2 4.9l-5.5 9.6c-.9 1.5-.4 2.1.4 2.1 1.7 0 4-2.5 6.7-5.7l.3-.3s.1.1.2.1l3.7-6.4c1.6-2.8 4.5-4.4 6.5-4.4 1.6 0 2.8.9 3.5 2l5.6-9.6h3.8l-12.8 22.1c-.9 1.5-.4 2.1.4 2.1 1.6 0 4.3-2.5 7-5.7Zm-108.2-4.8c2.2-3.9-1.6-4.5-3.8-.8l-2.4 4.2c1.4.5 3.9.6 5.7-2.5l.5-.9Zm4.9 5.8c-3.2 3.7-7.4 7-11.7 7-3.1 0-5.1-1.8-5.3-4.2-2.5 2.4-5 4.2-7.3 4.2-3.1 0-4.2-2.6-2.6-5.4l4.9-8.5c1.6-2.8-1-3.7-6.8 3.6l-5.7 10h-3.8l1.5-2.6c-2 1.8-4 3-5.9 3-3.1 0-4.2-2.6-2.6-5.4l7.6-13.2h-3.4l1.1-1.8h3.4l3.6-6.2h3.8l-3.6 6.2h3.1l-1.1 1.8h-3.1l-8.1 14.1c-.9 1.5-.4 2.1.4 2.1 1.6 0 4.3-2.5 7-5.7l.3-.3c.05.05.13.1.2.15l.2.15 10.7-18.5h3.8l-6 10.5c1.9-2 3.7-2.9 5.3-2.9 2.1 0 3.6 2 2 4.9l-5.4 9.6c-.9 1.5-.4 2.1.4 2.1 1.6 0 4.3-2.5 7-5.7l.3-.3c0 .1.1.1.1.1l3.7-6.3c1.6-2.8 4.1-4.4 7.1-4.4 3.1 0 5 2.6 3 6.1l-.5.9c-2.8 4.9-7.4 5.4-9.8 4.4l-.4.7c-1.7 3-.3 4.5 2 4.5 2.7 0 6.2-2.5 8.9-5.7l.3-.3c.5.2 1.1.8 1.4 1.3Zm-135.4-5.8c2.2-3.9-1.6-4.5-3.8-.8l-2.4 4.2c1.4.5 3.9.6 5.7-2.5l.5-.9Zm24.6-.8-5.3 9.2c-.9 1.5-.4 2 .5 2.1 1.6 0 3.8-1.7 6.1-5.3l2.9-5.2c1.9-3.4-2.2-4.3-4.2-.8Zm52.5.8c2.2-3.9-1.6-4.5-3.8-.8l-2.4 4.2c1.5.5 3.9.6 5.7-2.5l.5-.9Zm-58.5 12.8c-2.5 0-3.7-1.9-3.1-4.1-2.7 2.3-5.4 4.1-8.8 4-3.2 0-5.2-2-5.1-4.6-2.8 2.6-5.5 4.6-8.8 4.6-4.4 0-6.5-3.7-4.1-7.7l4-6.8c1.6-2.8 4-4.4 7.1-4.4 3.1 0 5 2.6 3 6.1l-.5.9c-2.8 4.9-7.4 5.4-9.8 4.4l-.4.7c-1.7 3-.3 4.5 2 4.5 2.7 0 5.9-2.5 8.6-5.7l.3-.3c.05.05.1.08.15.1.05.02.1.05.15.1l3.8-6.4c1.6-2.8 3.6-4.4 6.7-4.4s5 2.6 3 6.1l-.5.9H145l.5-.9c2.2-3.9-1.6-4.5-3.8-.8l-3.9 6.8c-1.7 3-.3 4.5 2 4.5 2.6 0 5.8-2.5 8.5-5.7l.3-.3c.1.05.2.13.3.2.1.07.2.15.3.2l3.8-6.6c1.6-2.8 4.5-4.4 6.5-4.4 2.5 0 4.1 2.2 4 3.8h2.1l-6.1 10.7c-.9 1.5-.4 2.1.4 2.1 1.6 0 4.3-2.5 7-5.7l.3-.3c.05.05.1.08.15.1.05.02.1.05.15.1l6-10.4h3.8l-7.4 12.9-.03.05c-.5.8-1.35 2.16-.47 2.55.7.4 2.9-1.1 5.8-3.7l6.7-11.7h3.8l-8.1 14.1c-.9 1.5-.4 2.1.4 2.1 1.6 0 4.3-2.5 7-5.7l.1-.2-.1-.1c2.42-2.85 4.84-6.2 6.6-8.65l1.8-2.45 2.8 1.5c-1.47 3-1.92 6.22-2.33 9.09-.26 1.82-.5 3.51-.97 4.91 1.6-1.2 3.2-2.5 4.5-4.1l.3-.3h.1l3.7-6.3c1.6-2.8 4-4.4 7.1-4.4 3.1 0 5 2.6 3 6.1l-.5.9c-2.8 4.9-7.4 5.4-9.8 4.4l-.4.7c-1.7 3-.3 4.5 2 4.5 2.7 0 6.2-2.5 8.9-5.7l.3-.3c.5.2 1.1.8 1.4 1.3-3.2 3.7-7.4 7-11.7 7-3.1 0-5-1.8-5.1-4.3-2.4 2.1-5.1 3.8-7.9 4.2h-.1c-.4.1-.7.1-1.1.1-3.4 0-4.1-3.1-4.1-3.1l2.4-1.2s.5 1.4 1.8 1.4c2.39 0 2.84-3.12 3.31-6.36.24-1.64.48-3.32.99-4.64l-.58.81a77.63 77.63 0 0 1-4.62 5.99c0 .1.1.2.1.2-3.1 3.7-6.7 7-9.8 7-2.4 0-3.6-1.6-3.2-3.6-1.8 1.7-4.1 3.6-6.2 3.6-1.9 0-2.8-1.3-2.4-3.3-2.2 1.9-4.4 3.3-6.4 3.3s-3.1-1-3.3-2.5c-1.8 1.5-3.7 2.5-5.2 2.5ZM113.5 282l-3.1 5.2c3.9 0 6-.9 7.5-3.6 1.9-3.6-1.6-6.4-4.4-1.6Zm-12.6 21.2c1.4.8 3.1 1.3 5.4 1.3 9.2 0 12.7-13.1 3.9-14.9l-1-.1-6.4 11c-.6 1-1.2 1.9-1.9 2.7Zm15.5-26.3c7.5 0 6.9 9.5-.7 12.1 7.2 4.8 2 18.4-9.3 18.4-13.2 0-15.5-14.6-7.6-19.6l1.5 1.9c-3.7 2.3-4.4 7.7-1.8 11.3a8 8 0 0 0 1.5-2.1l10.2-17.6c1.7-2.9 4.1-4.4 6.2-4.4Z" fill="#fff"/></svg>